<svg width="12" height="12" viewBox="0 0 12 12" fill="none" xmlns="http://www.w3.org/2000/svg">
<path d="M3.071 11.6096C2.94496 11.6096 2.8198 11.5686 2.71299 11.488C2.51402 11.3375 2.42107 11.0789 2.47522 10.8293L3.21529 7.42753L0.705452 5.13073C0.520962 4.96267 0.450484 4.69652 0.526228 4.453C0.601973 4.20993 0.808054 4.03784 1.05205 4.0143L4.37287 3.6997L5.68581 0.493549C5.78262 0.25799 6.00309 0.105865 6.24805 0.105865C6.49302 0.105865 6.71349 0.25799 6.8103 0.493L8.12324 3.6997L11.4435 4.0143C11.6881 4.03729 11.8941 4.20993 11.9699 4.453C12.0456 4.69607 11.9756 4.96267 11.7911 5.13073L9.28126 7.42707L10.0213 10.8288C10.0756 11.0789 9.98253 11.3375 9.78365 11.4875C9.5852 11.6376 9.32058 11.6491 9.1116 11.518L6.24805 9.73238L3.38451 11.519C3.2877 11.579 3.17983 11.6096 3.071 11.6096ZM6.24805 8.96315C6.35689 8.96315 6.46467 8.99365 6.56156 9.05364L9.26405 10.7403L8.56559 7.52955C8.51574 7.30105 8.59008 7.06246 8.7593 6.90787L11.1291 4.73911L7.99378 4.44201C7.76803 4.42048 7.57389 4.27239 7.48568 4.05533L6.24805 1.02969L5.00893 4.05579C4.92169 4.27138 4.72755 4.41948 4.50233 4.441L1.36653 4.7381L3.73629 6.90686C3.90603 7.06192 3.98028 7.30004 3.92999 7.5291L3.23205 10.7397L5.93454 9.05364C6.03135 8.99365 6.13922 8.96315 6.24805 8.96315ZM4.34751 3.7617C4.34751 3.7617 4.34751 3.76225 4.34698 3.76271L4.34751 3.7617ZM8.14763 3.76024L8.14816 3.76125C8.14816 3.7607 8.14816 3.7607 8.14763 3.76024Z" fill="#E8C4C6"/>
</svg>
