<svg width="17" height="17" viewBox="0 0 17 17" fill="none" xmlns="http://www.w3.org/2000/svg">
<path d="M17 8.49997C17 7.96593 16.9499 7.4314 16.8507 6.91243C16.8059 6.67752 16.6002 6.50775 16.3614 6.50775H8.5332C8.25792 6.50775 8.03516 6.73051 8.03516 7.0058V9.99408C8.03516 10.2694 8.25792 10.4921 8.5332 10.4921H12.5497C12.2994 10.9987 11.9546 11.4383 11.5496 11.8081L14.3645 14.6231C15.9842 13.08 17 10.9085 17 8.49997Z" fill="white"/>
<path d="M8.49999 3.98438C9.47712 3.98438 10.4066 4.29469 11.1877 4.88222C11.3851 5.03057 11.6638 5.01258 11.8389 4.836L13.9644 2.71054C14.0631 2.61179 14.1161 2.47609 14.1098 2.3365C14.1035 2.19692 14.0393 2.06656 13.9323 1.97658C12.4114 0.701848 10.4819 0 8.49999 0C5.58313 0 3.00627 1.48265 1.48294 3.73376L4.40641 6.65723C5.10387 5.08619 6.67312 3.98438 8.49999 3.98438Z" fill="white"/>
<path d="M8.49999 17C10.4013 17 12.1521 16.3625 13.5669 15.3004L10.6991 12.4326C10.0436 12.8017 9.29437 13.0156 8.49999 13.0156C6.67312 13.0156 5.10387 11.9138 4.40641 10.3428L1.48294 13.2662C3.00627 15.5173 5.58313 17 8.49999 17Z" fill="white"/>
<path d="M4.05689 9.21733C4.01874 8.98228 3.98438 8.74558 3.98438 8.49997C3.98438 8.25437 4.01874 8.01767 4.05689 7.78262L0.93168 4.65741C0.340398 5.81221 0 7.11594 0 8.49997C0 9.88401 0.340398 11.1877 0.931713 12.3425L4.05689 9.21733Z" fill="white"/>
</svg>
