<svg width="22" height="21" viewBox="0 0 22 21" fill="none" xmlns="http://www.w3.org/2000/svg">
<path d="M15 6.2H11.8V3H10.2V6.2H7V7.8H10.2V11H11.8V7.8H15V6.2Z" fill="white"/>
<path d="M20.4286 6H18.8571V1.5C18.8567 1.1023 18.691 0.720997 18.3964 0.439778C18.1018 0.15856 17.7024 0.000397108 17.2857 0H4.71429C4.29764 0.000397108 3.89819 0.15856 3.60358 0.439778C3.30897 0.720997 3.14327 1.1023 3.14286 1.5V6H1.57143C1.15479 6.0004 0.75533 6.15856 0.46072 6.43978C0.16611 6.721 0.000416017 7.1023 0 7.5V21H22V7.5C21.9996 7.1023 21.8339 6.721 21.5393 6.43978C21.2447 6.15856 20.8452 6.0004 20.4286 6ZM9.42857 19.5V15H12.5714V19.5H9.42857ZM14.1429 19.5V14.25C14.1429 14.0511 14.0601 13.8603 13.9127 13.7197C13.7654 13.579 13.5655 13.5 13.3571 13.5H8.64286C8.43447 13.5 8.23462 13.579 8.08727 13.7197C7.93992 13.8603 7.85714 14.0511 7.85714 14.25V19.5H1.57143V7.5H4.71429V1.5H17.2857V7.5H20.4286V19.5H14.1429Z" fill="white"/>
</svg>
