<svg width="41" height="48" viewBox="0 0 41 48" fill="none" xmlns="http://www.w3.org/2000/svg">
<path d="M41 20.4686C41 29.5108 27.8439 42.4217 22.6176 47.1903C21.4011 48.2699 19.5989 48.2699 18.3824 47.1903C13.156 42.4217 0 29.5558 0 20.4686C0 9.17713 9.19121 0 20.5 0C31.8088 0 41 9.17713 41 20.4686Z" fill="#F3434D"/>
<path d="M25 16.2H21.8V13H20.2V16.2H17V17.8H20.2V21H21.8V17.8H25V16.2Z" fill="white"/>
<path d="M30.4286 16H28.8571V11.5C28.8567 11.1023 28.691 10.721 28.3964 10.4398C28.1018 10.1586 27.7024 10.0004 27.2857 10H14.7143C14.2976 10.0004 13.8982 10.1586 13.6036 10.4398C13.309 10.721 13.1433 11.1023 13.1429 11.5V16H11.5714C11.1548 16.0004 10.7553 16.1586 10.4607 16.4398C10.1661 16.721 10.0004 17.1023 10 17.5V31H32V17.5C31.9996 17.1023 31.8339 16.721 31.5393 16.4398C31.2447 16.1586 30.8452 16.0004 30.4286 16ZM19.4286 29.5V25H22.5714V29.5H19.4286ZM24.1429 29.5V24.25C24.1429 24.0511 24.0601 23.8603 23.9127 23.7197C23.7654 23.579 23.5655 23.5 23.3571 23.5H18.6429C18.4345 23.5 18.2346 23.579 18.0873 23.7197C17.9399 23.8603 17.8571 24.0511 17.8571 24.25V29.5H11.5714V17.5H14.7143V11.5H27.2857V17.5H30.4286V29.5H24.1429Z" fill="white"/>
</svg>
