<svg width="23" height="23" viewBox="0 0 23 23" fill="none" xmlns="http://www.w3.org/2000/svg">
<path d="M9 2.34038C10.333 2.33909 11.6364 2.7579 12.7454 3.54382C13.8543 4.32974 14.719 5.44747 15.2299 6.7556C15.7409 8.06373 15.8752 9.5035 15.6159 10.8928C15.3566 12.282 14.7153 13.5583 13.7731 14.5603C12.831 15.5622 11.6303 16.2448 10.323 16.5216C9.01573 16.7983 7.66053 16.6569 6.42888 16.1152C5.19723 15.5735 4.14446 14.6559 3.40376 13.4783C2.66306 12.3008 2.2677 10.9163 2.2677 9.5C2.27578 7.60493 2.98747 5.78982 4.2481 4.44918C5.50873 3.10854 7.21641 2.3507 9 2.34038ZM9 1C7.41775 1 5.87103 1.49852 4.55544 2.43251C3.23985 3.3665 2.21447 4.69402 1.60897 6.24719C1.00347 7.80036 0.84504 9.50943 1.15372 11.1583C1.4624 12.8071 2.22433 14.3217 3.34315 15.5104C4.46197 16.6992 5.88743 17.5087 7.43928 17.8367C8.99113 18.1646 10.5997 17.9963 12.0615 17.353C13.5233 16.7096 14.7727 15.6202 15.6518 14.2223C16.5308 12.8245 17 11.1811 17 9.5C17 7.24566 16.1571 5.08365 14.6569 3.48959C13.1566 1.89553 11.1217 1 9 1Z" fill="#0DAF9A" stroke="#0DAF9A" stroke-width="0.4"/>
<path d="M21.808 20.8786L16.9383 16L16 16.9271L20.8697 21.8057C20.9309 21.867 21.0036 21.9157 21.0837 21.949C21.1638 21.9824 21.2497 21.9997 21.3365 22C21.4234 22.0003 21.5094 21.9836 21.5897 21.9508C21.67 21.918 21.7431 21.8698 21.8047 21.809C21.8663 21.7481 21.9153 21.6757 21.9488 21.596C21.9823 21.5163 21.9997 21.4309 22 21.3445C22.0003 21.2581 21.9835 21.1725 21.9506 21.0925C21.9176 21.0126 21.8692 20.9399 21.808 20.8786Z" fill="#0DAF9A" stroke="#0DAF9A" stroke-width="0.4"/>
</svg>
