<svg width="18" height="19" viewBox="0 0 18 19" fill="none" xmlns="http://www.w3.org/2000/svg">
<path d="M4.02878 18.4597C3.83157 18.4597 3.63573 18.3955 3.4686 18.2694C3.15727 18.0339 3.01183 17.6292 3.09657 17.2387L4.25455 11.916L0.327393 8.32215C0.0387204 8.05919 -0.0715576 7.64274 0.0469603 7.26169C0.165478 6.88136 0.487935 6.61209 0.869719 6.57526L6.06583 6.08301L8.12019 1.06633C8.27166 0.697747 8.61664 0.459717 8.99994 0.459717C9.38323 0.459717 9.72821 0.697747 9.87969 1.06547L11.934 6.08301L17.1293 6.57526C17.5119 6.61123 17.8344 6.88136 17.9529 7.26169C18.0714 7.64203 17.9618 8.05919 17.6732 8.32215L13.746 11.9152L14.904 17.2379C14.9889 17.6292 14.8433 18.0339 14.5321 18.2687C14.2216 18.5034 13.8075 18.5215 13.4805 18.3164L8.99994 15.5224L4.51933 18.318C4.36785 18.4118 4.19907 18.4597 4.02878 18.4597ZM8.99994 14.3188C9.17023 14.3188 9.33888 14.3665 9.49049 14.4603L13.7191 17.0994L12.6262 12.0756C12.5482 11.7181 12.6645 11.3447 12.9293 11.1028L16.6374 7.70938L11.7315 7.2445C11.3783 7.21082 11.0745 6.9791 10.9365 6.63946L8.99994 1.90524L7.06108 6.64018C6.92457 6.97752 6.62079 7.20925 6.2684 7.24292L1.36178 7.7078L5.06976 11.1013C5.33536 11.3439 5.45154 11.7165 5.37285 12.0749L4.28078 17.0986L8.50939 14.4603C8.66086 14.3665 8.82965 14.3188 8.99994 14.3188ZM6.02614 6.18003C6.02614 6.18003 6.02614 6.18089 6.02532 6.1816L6.02614 6.18003ZM11.9722 6.17773L11.9731 6.17931C11.9731 6.17845 11.9731 6.17845 11.9722 6.17773Z" fill="#BADAD6"/>
</svg>
