<svg width="17" height="16" viewBox="0 0 17 16" fill="none" xmlns="http://www.w3.org/2000/svg">
<path d="M17 8C17 3.58125 13.1949 0 8.5 0C3.80508 0 0 3.58125 0 8C0 12.4188 3.80508 16 8.5 16C8.5498 16 8.59961 16 8.64941 15.9969V9.77188H6.82324V7.76875H8.64941V6.29375C8.64941 4.58438 9.7584 3.65313 11.3787 3.65313C12.1557 3.65313 12.823 3.70625 13.0156 3.73125V5.51875H11.9C11.0201 5.51875 10.8475 5.9125 10.8475 6.49063V7.76563H12.9559L12.6803 9.76875H10.8475V15.6906C14.4002 14.7313 17 11.6531 17 8Z" fill="white"/>
</svg>
