<svg width="210" height="166" viewBox="0 0 210 166" fill="none" xmlns="http://www.w3.org/2000/svg">
<path d="M11.4314 136.556C15.3831 137.708 18.121 139.084 19.7016 140.685C21.254 142.286 22.0444 144.421 22.0444 147.089C22.0444 153.268 18.0081 156.358 9.96371 156.358C7.39516 156.358 5.05242 155.937 2.96371 155.094C2.31452 154.841 1.80645 154.392 1.41129 153.746C1.01613 153.1 0.846774 152.398 0.846774 151.639V149.477C0.846774 148.943 1.07258 148.55 1.52419 148.297C1.97581 148.044 2.42742 148.044 2.90726 148.269C5.1371 149.308 7.33871 149.814 9.5121 149.814C12.0524 149.814 13.3226 148.971 13.3226 147.286C13.3226 146.499 13.125 145.881 12.7298 145.46C12.3347 145.039 11.6008 144.674 10.5565 144.337C6.80242 143.185 4.09274 141.752 2.45564 140.011C0.818548 138.326 0 136.163 0 133.607C0 130.854 0.987903 128.692 2.99194 127.119C4.96774 125.546 7.875 124.759 11.6573 124.759C14.3669 124.759 16.7944 125.04 18.9113 125.658C19.5887 125.855 20.125 126.248 20.5484 126.866C20.9718 127.484 21.1976 128.13 21.1976 128.86V130.939C21.1976 131.5 20.9718 131.95 20.4919 132.259C20.0121 132.596 19.504 132.652 18.9395 132.455C16.4274 131.641 14.1411 131.248 12.0806 131.248C9.76613 131.248 8.60887 132.034 8.60887 133.635C8.60887 135.011 9.54032 135.995 11.4314 136.556Z" fill="white"/>
<path d="M35.8185 133.607C39.5443 133.607 42.2258 134.281 43.9193 135.629C45.5846 136.978 46.4032 139.112 46.4032 142.033V153.549C46.4032 154.195 46.1491 154.757 45.6975 155.235C45.2177 155.712 44.6532 155.937 44.004 155.937H41.3225C40.6451 155.937 40.0524 155.712 39.5725 155.235C39.0927 154.757 38.8387 154.195 38.8104 153.521V153.184C38.8104 153.156 38.7822 153.128 38.754 153.128C38.7258 153.128 38.6975 153.156 38.6693 153.184C36.8629 155.291 34.633 156.358 31.9798 156.358C30.004 156.358 28.3669 155.74 27.0967 154.476C25.8266 153.24 25.1774 151.611 25.1774 149.617C25.1774 144.561 28.9879 142.033 36.6088 142.033H37.9354C38.1895 142.033 38.3024 141.893 38.3024 141.668V141.612C38.3024 139.927 37.3145 139.084 35.3387 139.084C33.6451 139.084 31.4435 139.337 28.762 139.843C28.1693 139.955 27.633 139.814 27.1532 139.449C26.6733 139.056 26.4475 138.579 26.4475 137.961V137.287C26.4475 136.584 26.6733 135.966 27.0967 135.377C27.5201 134.815 28.0846 134.478 28.762 134.365C31.6411 133.86 33.9556 133.607 35.8185 133.607ZM38.3588 147.089V146.836C38.3588 146.584 38.2177 146.471 37.9919 146.471H36.6653C33.8427 146.471 32.4314 147.314 32.4314 148.999C32.4314 150.263 33.137 150.909 34.5483 150.909C35.6491 150.909 36.5524 150.572 37.2862 149.87C37.9919 149.168 38.3588 148.241 38.3588 147.089Z" fill="white"/>
<path d="M70.2823 134.028C70.9314 134.028 71.496 134.281 71.9758 134.731C72.4556 135.208 72.7097 135.77 72.7097 136.416V153.521C72.7097 154.167 72.4556 154.729 71.9758 155.206C71.496 155.684 70.9314 155.909 70.2823 155.909H67.4032C66.7258 155.909 66.1331 155.684 65.6532 155.206C65.1734 154.729 64.9194 154.167 64.8911 153.493V153.156C64.8911 153.128 64.8629 153.1 64.8629 153.1C64.8064 153.1 64.7782 153.128 64.7782 153.156C63.0282 155.263 60.8548 156.33 58.3145 156.33C55.8306 156.33 54.0524 155.656 52.9516 154.28C51.8508 152.903 51.3145 150.516 51.3145 147.061V136.388C51.3145 135.742 51.5403 135.18 52.0202 134.702C52.5 134.225 53.0645 134 53.7137 134H56.7339C57.3831 134 57.9476 134.253 58.4274 134.702C58.9073 135.18 59.1613 135.742 59.1613 136.388V146.64C59.1613 147.932 59.3306 148.831 59.6976 149.308C60.0363 149.786 60.6573 150.01 61.504 150.01C62.2944 150.01 63.0282 149.701 63.6774 149.083C64.3266 148.465 64.6653 147.791 64.6653 147.061V136.388C64.6653 135.742 64.8911 135.18 65.371 134.702C65.8508 134.225 66.4153 134 67.0645 134H70.2823V134.028ZM62.4073 123.495H66.8952C67.375 123.495 67.7137 123.72 67.8831 124.142C68.0524 124.563 67.996 124.928 67.6855 125.265L64.129 129.31C63.0847 130.489 61.7298 131.079 60.0927 131.079H58.1452C57.6089 131.079 57.2137 130.854 56.9314 130.377C56.6492 129.899 56.6492 129.45 56.9032 128.973L58.7661 125.602C59.5564 124.198 60.7702 123.495 62.4073 123.495Z" fill="white"/>
<path d="M97.2097 124.338C97.8589 124.338 98.4234 124.591 98.9033 125.04C99.3831 125.518 99.6089 126.08 99.6089 126.726V153.521C99.6089 154.167 99.3549 154.729 98.9033 155.206C98.4234 155.684 97.8589 155.909 97.2097 155.909H94.5283C93.8508 155.909 93.2581 155.684 92.7783 155.206C92.2984 154.729 92.0444 154.167 92.0162 153.493V153.156C92.0162 153.128 91.9879 153.1 91.9597 153.1C91.9315 153.1 91.9033 153.128 91.875 153.156C90.1533 155.263 87.9234 156.33 85.1855 156.33C82.7299 156.33 80.6976 155.347 79.117 153.325C77.5081 151.33 76.7178 148.55 76.7178 144.954C76.7178 141.275 77.4799 138.466 79.0041 136.5C80.5283 134.562 82.5887 133.579 85.1855 133.579C87.4436 133.579 89.5041 134.422 91.3952 136.051C91.4234 136.079 91.4517 136.107 91.4799 136.107C91.5081 136.107 91.5363 136.107 91.5363 136.051V126.697C91.5363 126.051 91.7621 125.49 92.242 125.012C92.7218 124.535 93.2863 124.31 93.9355 124.31H97.2097V124.338ZM91.7904 147.314V142.679C91.7904 141.865 91.4234 141.134 90.7178 140.488C90.0121 139.842 89.1654 139.505 88.2057 139.505C85.8065 139.505 84.5928 141.331 84.5928 144.983C84.5928 146.808 84.9033 148.184 85.5807 149.083C86.2299 150.01 87.1049 150.46 88.2057 150.46C89.1654 150.46 90.0121 150.151 90.7178 149.477C91.4234 148.859 91.7904 148.128 91.7904 147.314Z" fill="white"/>
<path d="M114.907 133.607C122.077 133.607 125.661 137.371 125.718 144.898C125.718 145.572 125.464 146.134 124.956 146.612C124.448 147.061 123.827 147.314 123.121 147.314H112.028C111.774 147.314 111.661 147.454 111.746 147.679C112 148.859 112.565 149.701 113.411 150.179C114.258 150.656 115.613 150.881 117.448 150.881C118.605 150.881 120.016 150.712 121.681 150.375C122.274 150.235 122.81 150.347 123.29 150.741C123.77 151.134 124.024 151.611 124.024 152.229V152.903C124.024 153.605 123.798 154.251 123.375 154.813C122.923 155.403 122.387 155.74 121.71 155.852C119.988 156.19 118.153 156.358 116.206 156.358C112.198 156.358 109.121 155.375 106.948 153.437C104.774 151.499 103.702 148.662 103.702 144.983C103.702 141.331 104.661 138.522 106.581 136.556C108.472 134.59 111.266 133.607 114.907 133.607ZM117.899 142.876C118.153 142.876 118.294 142.736 118.294 142.511C118.266 141.219 117.984 140.292 117.476 139.73C116.94 139.168 116.177 138.888 115.133 138.888C114.032 138.888 113.214 139.168 112.649 139.702C112.085 140.236 111.746 141.191 111.605 142.539C111.605 142.764 111.718 142.876 111.944 142.876H117.899Z" fill="white"/>
<path d="M129.81 155.937C129.387 155.937 129.048 155.768 128.794 155.403C128.54 155.066 128.484 154.673 128.625 154.28L138.278 126.922C138.476 126.389 138.815 125.967 139.266 125.63C139.746 125.321 140.254 125.153 140.819 125.153C141.383 125.153 141.891 125.321 142.371 125.63C142.851 125.967 143.161 126.389 143.359 126.922L152.956 154.223C153.097 154.645 153.04 155.038 152.786 155.375C152.532 155.74 152.194 155.909 151.77 155.909C151.206 155.909 150.698 155.74 150.274 155.431C149.823 155.122 149.54 154.701 149.371 154.195L147.113 147.286C147.028 147.061 146.859 146.949 146.605 146.949H134.891C134.665 146.949 134.496 147.061 134.411 147.286L132.069 154.28C131.899 154.785 131.617 155.178 131.194 155.487C130.827 155.796 130.347 155.937 129.81 155.937ZM140.677 128.27L135.512 143.943C135.484 144.028 135.484 144.112 135.54 144.168C135.597 144.252 135.681 144.28 135.766 144.28H145.73C145.815 144.28 145.871 144.252 145.927 144.168C145.984 144.112 145.984 144.028 145.984 143.943L140.819 128.27C140.819 128.242 140.79 128.214 140.762 128.214C140.706 128.214 140.677 128.242 140.677 128.27Z" fill="white"/>
<path d="M164.528 156.358C161.903 156.358 159.758 155.347 158.121 153.296C156.456 151.274 155.637 148.494 155.637 144.983C155.637 141.359 156.427 138.55 158.036 136.584C159.617 134.618 161.79 133.607 164.528 133.607C167.379 133.607 169.75 134.787 171.585 137.118L171.669 137.202C171.698 137.202 171.698 137.202 171.698 137.146L171.754 135.545C171.754 135.124 171.895 134.759 172.206 134.478C172.516 134.197 172.883 134.028 173.306 134.028C173.73 134.028 174.097 134.169 174.379 134.478C174.661 134.787 174.831 135.124 174.831 135.545V163.605C174.831 164.054 174.661 164.419 174.351 164.728C174.012 165.037 173.645 165.206 173.194 165.206C172.742 165.206 172.347 165.037 172.065 164.728C171.754 164.419 171.585 164.026 171.585 163.605V153.128C171.585 153.1 171.556 153.072 171.556 153.072C171.528 153.072 171.5 153.1 171.472 153.128C169.722 155.291 167.407 156.358 164.528 156.358ZM165.234 136.135C161 136.135 158.883 139.084 158.883 144.983C158.883 147.876 159.448 150.066 160.548 151.583C161.649 153.1 163.23 153.83 165.234 153.83C166.927 153.83 168.423 153.268 169.694 152.089C170.964 150.937 171.613 149.561 171.613 147.96V141.977C171.613 140.404 170.992 139.028 169.722 137.876C168.452 136.725 166.956 136.135 165.234 136.135Z" fill="white"/>
<path d="M188.097 156.358C185.641 156.358 183.835 155.684 182.706 154.336C181.577 152.987 180.984 150.74 180.984 147.651V135.629C180.984 135.18 181.125 134.815 181.435 134.506C181.718 134.197 182.113 134.028 182.565 134.028C183.016 134.028 183.383 134.197 183.722 134.506C184.032 134.815 184.173 135.208 184.173 135.629V147.23C184.173 149.757 184.569 151.499 185.302 152.426C186.065 153.381 187.278 153.83 188.944 153.83C190.468 153.83 191.907 153.184 193.262 151.864C194.617 150.544 195.294 149.139 195.294 147.595V135.629C195.294 135.18 195.464 134.815 195.774 134.506C196.085 134.197 196.48 134.028 196.931 134.028C197.383 134.028 197.75 134.197 198.089 134.506C198.399 134.815 198.54 135.208 198.54 135.629V154.42C198.54 154.841 198.399 155.206 198.089 155.487C197.806 155.768 197.44 155.937 197.016 155.937C196.593 155.937 196.226 155.796 195.915 155.487C195.605 155.206 195.436 154.841 195.436 154.42V152.707C195.436 152.679 195.407 152.65 195.407 152.65C195.379 152.65 195.351 152.679 195.323 152.707C193.403 155.15 190.976 156.358 188.097 156.358Z" fill="white"/>
<path d="M209.52 128.383C209.181 128.72 208.786 128.86 208.306 128.86C207.827 128.86 207.431 128.692 207.093 128.383C206.754 128.074 206.613 127.652 206.613 127.175V126.051C206.613 125.602 206.782 125.209 207.093 124.872C207.403 124.535 207.827 124.366 208.306 124.366C208.786 124.366 209.181 124.535 209.52 124.872C209.831 125.209 210 125.602 210 126.051V127.175C210 127.652 209.831 128.046 209.52 128.383ZM209.52 155.431C209.181 155.768 208.786 155.937 208.306 155.937C207.827 155.937 207.431 155.768 207.093 155.431C206.754 155.094 206.613 154.701 206.613 154.251V135.714C206.613 135.264 206.782 134.871 207.093 134.534C207.403 134.197 207.827 134.028 208.306 134.028C208.786 134.028 209.181 134.197 209.52 134.534C209.831 134.871 210 135.264 210 135.714V154.251C210 154.701 209.831 155.094 209.52 155.431Z" fill="white"/>
<path d="M124.73 72.6007C124.73 73.1905 124.73 73.7804 124.73 74.3702C124.73 77.6845 124.73 81.027 124.73 84.3413C124.702 88.6949 123.629 92.7395 120.835 96.1943C117.024 100.913 112.028 103.216 105.931 103.048C98.621 102.851 93.3145 99.4244 89.8992 93.0485C88.8549 91.0823 88.2057 88.9196 88.1774 86.6445C88.121 76.7577 88.0363 66.8708 87.9799 57.012C87.9799 56.6469 87.9799 56.2818 87.9799 55.8885C86.5968 55.4953 85.1855 55.1863 83.8871 54.7089C81.3186 53.7539 79.1734 52.181 77.5081 49.9901C76.6048 48.7824 75.5887 47.6589 74.8548 46.3668C73.4436 43.8109 72.0887 41.1987 70.875 38.5304C68.9274 34.2049 67.0081 29.8794 65.2863 25.4696C64.2137 22.7732 63.8185 19.8802 63.9032 16.931C64.0444 12.774 66.0766 9.76864 69.5766 7.74633C71.4395 6.679 73.4436 5.86446 75.3911 4.96566C75.8992 4.74096 76.2097 4.51626 76.3226 3.89833C76.6613 2.26925 78.1008 1.11765 79.7379 1.0053C81.3186 0.921039 82.8145 1.84793 83.4073 3.30849C84.0282 4.82522 83.6331 6.56665 82.4194 7.6059C81.1774 8.67322 79.2863 8.81366 77.9315 7.91486C77.4516 7.57781 77.0565 7.49354 76.5202 7.74633C74.6573 8.64514 72.7379 9.37542 70.9597 10.4147C67.2903 12.5493 65.9637 15.8356 66.754 20.0768C67.5444 24.4304 69.2661 28.4469 71.129 32.4354C72.5686 35.4969 73.8952 38.6427 75.6169 41.5358C77.621 44.8782 79.625 48.333 83.0968 50.5238C85.129 51.8158 87.3589 52.6585 89.7581 52.518C93.1734 52.3214 96.1371 50.8889 98.3952 48.3049C99.6371 46.8724 100.71 45.2433 101.782 43.6704C105.311 38.5304 107.653 32.8005 110.024 27.0987C111.266 24.0933 112.282 20.9756 112.254 17.6332C112.254 14.5997 110.899 12.2965 108.415 10.7798C106.411 9.54394 104.21 8.61705 102.065 7.66207C101.754 7.52163 101.161 7.80251 100.794 8.02721C99.1008 9.1788 96.7299 8.86984 95.5726 7.26884C94.3024 5.5555 94.6411 3.22422 96.3347 1.96028C98.2823 0.499724 101.218 1.34235 102.036 3.64554C102.29 4.37582 102.686 4.71287 103.363 4.93757C106.101 5.89255 108.698 7.10032 110.984 8.92601C113.665 11.0607 114.936 13.8414 115.02 17.268C115.105 21.2284 114.089 24.9641 112.536 28.5031C110.278 33.6712 107.681 38.6989 105.367 43.8389C103.899 47.0971 101.895 49.934 99.1855 52.2652C97.2097 53.9505 94.9516 54.9897 92.3831 55.4672C91 55.72 91 55.72 91 57.1244C91 65.8596 91.0282 74.5949 90.9718 83.3302C90.9718 85.6895 91.1411 88.0208 92.0726 90.1555C93.5968 93.7507 96.1371 96.5033 99.6936 98.2447C108.331 102.486 118.21 97.4863 120.75 89.0039C121.117 87.768 121.399 86.476 121.427 85.212C121.512 81.1674 121.456 77.1228 121.456 73.0501C121.456 72.9096 121.427 72.7692 121.427 72.5445L124.73 72.6007Z" fill="white" stroke="white" stroke-width="2" stroke-miterlimit="10"/>
<path d="M135.964 60.4948C135.964 66.1404 127.722 74.2016 124.448 77.1789C123.685 77.853 122.556 77.853 121.794 77.1789C118.52 74.2016 110.278 66.1685 110.278 60.4948C110.278 53.4448 116.036 47.715 123.121 47.715C130.206 47.715 135.964 53.4448 135.964 60.4948Z" fill="white"/>
<path d="M128.145 60.1017C128.258 56.6188 126 54.9616 123.121 54.8212C119.988 54.6808 118.012 56.7873 117.984 59.9612C117.956 63.2194 119.931 65.2698 123.093 65.2698C126.141 65.2698 128.145 63.2194 128.145 60.1017Z" fill="#4EBFB1"/>
</svg>
