<svg width="156" height="123" viewBox="0 0 156 123" fill="none" xmlns="http://www.w3.org/2000/svg">
<path d="M8.49193 101.699C11.4274 102.554 13.4613 103.577 14.6355 104.766C15.7887 105.955 16.3758 107.541 16.3758 109.523C16.3758 114.114 13.3774 116.409 7.40161 116.409C5.49355 116.409 3.75323 116.096 2.20161 115.47C1.71935 115.282 1.34194 114.948 1.04839 114.468C0.754839 113.988 0.629032 113.467 0.629032 112.903V111.297C0.629032 110.9 0.796774 110.608 1.13226 110.421C1.46774 110.233 1.80323 110.233 2.15968 110.4C3.81613 111.172 5.45161 111.547 7.06613 111.547C8.95323 111.547 9.89677 110.921 9.89677 109.669C9.89677 109.085 9.75 108.626 9.45645 108.313C9.1629 108 8.61774 107.729 7.84194 107.479C5.05323 106.623 3.04032 105.559 1.82419 104.265C0.608064 103.013 0 101.407 0 99.5081C0 97.4633 0.733871 95.8567 2.22258 94.6882C3.69032 93.5198 5.85 92.9355 8.65968 92.9355C10.6726 92.9355 12.4758 93.1442 14.0484 93.6032C14.5516 93.7493 14.95 94.0414 15.2645 94.5004C15.579 94.9595 15.7468 95.4394 15.7468 95.9819V97.5259C15.7468 97.9432 15.579 98.277 15.2226 98.5065C14.8661 98.7569 14.4887 98.7986 14.0694 98.6526C12.2032 98.0475 10.5048 97.7554 8.97419 97.7554C7.25484 97.7554 6.39516 98.3396 6.39516 99.5289C6.39516 100.551 7.0871 101.282 8.49193 101.699Z" fill="#0DAF9A"/>
<path d="M26.6081 99.5081C29.3758 99.5081 31.3677 100.009 32.6258 101.01C33.8629 102.012 34.471 103.598 34.471 105.768V114.322C34.471 114.802 34.2823 115.219 33.9468 115.574C33.5903 115.929 33.171 116.096 32.6887 116.096H30.6968C30.1935 116.096 29.7532 115.929 29.3968 115.574C29.0403 115.219 28.8516 114.802 28.8306 114.301V114.051C28.8306 114.03 28.8097 114.009 28.7887 114.009C28.7677 114.009 28.7468 114.03 28.7258 114.051C27.3839 115.616 25.7274 116.409 23.7564 116.409C22.2887 116.409 21.0726 115.95 20.129 115.011C19.1855 114.093 18.7032 112.883 18.7032 111.401C18.7032 107.645 21.5339 105.768 27.1952 105.768H28.1806C28.3693 105.768 28.4532 105.663 28.4532 105.496V105.455C28.4532 104.203 27.7193 103.577 26.2516 103.577C24.9935 103.577 23.3581 103.765 21.3661 104.14C20.9258 104.224 20.5274 104.119 20.171 103.848C19.8145 103.556 19.6468 103.201 19.6468 102.742V102.241C19.6468 101.72 19.8145 101.261 20.129 100.823C20.4435 100.405 20.8629 100.155 21.3661 100.071C23.5048 99.6958 25.2242 99.5081 26.6081 99.5081ZM28.4952 109.523V109.336C28.4952 109.148 28.3903 109.064 28.2226 109.064H27.2371C25.1403 109.064 24.0919 109.69 24.0919 110.942C24.0919 111.881 24.6161 112.361 25.6645 112.361C26.4823 112.361 27.1532 112.111 27.6984 111.589C28.2226 111.067 28.4952 110.379 28.4952 109.523Z" fill="#0DAF9A"/>
<path d="M52.2097 99.821C52.6919 99.821 53.1113 100.009 53.4677 100.343C53.8242 100.697 54.0129 101.115 54.0129 101.595V114.301C54.0129 114.781 53.8242 115.199 53.4677 115.553C53.1113 115.908 52.6919 116.075 52.2097 116.075H50.071C49.5677 116.075 49.1274 115.908 48.771 115.553C48.4145 115.199 48.2258 114.781 48.2048 114.281V114.03C48.2048 114.009 48.1839 113.988 48.1839 113.988C48.1419 113.988 48.121 114.009 48.121 114.03C46.821 115.595 45.2065 116.388 43.3194 116.388C41.4742 116.388 40.1532 115.887 39.3355 114.865C38.5177 113.842 38.1194 112.069 38.1194 109.502V101.574C38.1194 101.094 38.2871 100.676 38.6435 100.322C39 99.967 39.4194 99.8001 39.9016 99.8001H42.1452C42.6274 99.8001 43.0468 99.9879 43.4032 100.322C43.7597 100.676 43.9484 101.094 43.9484 101.574V109.189C43.9484 110.149 44.0742 110.817 44.3468 111.172C44.5984 111.526 45.0597 111.693 45.6887 111.693C46.2758 111.693 46.821 111.464 47.3032 111.005C47.7855 110.546 48.0371 110.045 48.0371 109.502V101.574C48.0371 101.094 48.2048 100.676 48.5613 100.322C48.9177 99.967 49.3371 99.8001 49.8194 99.8001H52.2097V99.821ZM46.3597 91.9966H49.6935C50.05 91.9966 50.3016 92.1635 50.4274 92.4765C50.5532 92.7895 50.5113 93.0607 50.2806 93.3111L47.6387 96.3157C46.8629 97.192 45.8564 97.6302 44.6403 97.6302H43.1935C42.7952 97.6302 42.5016 97.4632 42.2919 97.1085C42.0823 96.7538 42.0823 96.42 42.271 96.0653L43.6548 93.5615C44.2419 92.5182 45.1435 91.9966 46.3597 91.9966Z" fill="#0DAF9A"/>
<path d="M72.2129 92.6226C72.6952 92.6226 73.1145 92.8103 73.471 93.1442C73.8274 93.4989 73.9952 93.9162 73.9952 94.3961V114.301C73.9952 114.781 73.8065 115.199 73.471 115.553C73.1145 115.908 72.6952 116.075 72.2129 116.075H70.221C69.7177 116.075 69.2774 115.908 68.921 115.553C68.5645 115.199 68.3758 114.781 68.3548 114.281V114.03C68.3548 114.009 68.3339 113.988 68.3129 113.988C68.2919 113.988 68.271 114.009 68.25 114.03C66.971 115.595 65.3145 116.388 63.2807 116.388C61.4565 116.388 59.9468 115.658 58.7726 114.155C57.5774 112.674 56.9903 110.608 56.9903 107.938C56.9903 105.204 57.5565 103.118 58.6887 101.657C59.821 100.217 61.3516 99.4872 63.2807 99.4872C64.9581 99.4872 66.4887 100.113 67.8936 101.323C67.9145 101.344 67.9355 101.365 67.9565 101.365C67.9774 101.365 67.9984 101.365 67.9984 101.323V94.3752C67.9984 93.8953 68.1661 93.478 68.5226 93.1233C68.879 92.7686 69.2984 92.6017 69.7807 92.6017H72.2129V92.6226ZM68.1871 109.69V106.247C68.1871 105.642 67.9145 105.1 67.3903 104.62C66.8661 104.14 66.2371 103.89 65.5242 103.89C63.7419 103.89 62.8403 105.246 62.8403 107.958C62.8403 109.315 63.071 110.337 63.5742 111.005C64.0565 111.693 64.7065 112.027 65.5242 112.027C66.2371 112.027 66.8661 111.798 67.3903 111.297C67.9145 110.838 68.1871 110.295 68.1871 109.69Z" fill="#0DAF9A"/>
<path d="M85.3597 99.5081C90.6855 99.5081 93.3484 102.304 93.3904 107.896C93.3904 108.397 93.2017 108.814 92.8242 109.169C92.4468 109.502 91.9855 109.69 91.4613 109.69H83.221C83.0323 109.69 82.9484 109.795 83.0113 109.961C83.2 110.838 83.6194 111.464 84.2484 111.818C84.8774 112.173 85.8839 112.34 87.2468 112.34C88.1065 112.34 89.1549 112.215 90.392 111.965C90.8323 111.86 91.2307 111.944 91.5871 112.236C91.9436 112.528 92.1323 112.883 92.1323 113.342V113.842C92.1323 114.364 91.9646 114.844 91.65 115.261C91.3146 115.699 90.9162 115.95 90.4129 116.033C89.1339 116.284 87.771 116.409 86.3242 116.409C83.3468 116.409 81.0613 115.679 79.4468 114.239C77.8323 112.799 77.0355 110.692 77.0355 107.958C77.0355 105.246 77.7484 103.159 79.1742 101.699C80.579 100.238 82.6549 99.5081 85.3597 99.5081ZM87.5823 106.394C87.771 106.394 87.8758 106.289 87.8758 106.122C87.8549 105.163 87.6452 104.474 87.2678 104.057C86.8694 103.639 86.3032 103.431 85.5274 103.431C84.7097 103.431 84.1016 103.639 83.6823 104.036C83.2629 104.432 83.0113 105.142 82.9065 106.143C82.9065 106.31 82.9903 106.394 83.1581 106.394H87.5823Z" fill="#0DAF9A"/>
<path d="M96.4306 116.096C96.1161 116.096 95.8645 115.971 95.6758 115.699C95.4871 115.449 95.4452 115.157 95.55 114.865L102.721 94.5422C102.868 94.1457 103.119 93.8328 103.455 93.5824C103.811 93.3529 104.189 93.2277 104.608 93.2277C105.027 93.2277 105.405 93.3529 105.761 93.5824C106.118 93.8328 106.348 94.1457 106.495 94.5422L113.624 114.823C113.729 115.136 113.687 115.428 113.498 115.679C113.31 115.95 113.058 116.075 112.744 116.075C112.324 116.075 111.947 115.95 111.632 115.72C111.297 115.491 111.087 115.178 110.961 114.802L109.284 109.669C109.221 109.502 109.095 109.419 108.906 109.419H100.205C100.037 109.419 99.9113 109.502 99.8484 109.669L98.1081 114.865C97.9823 115.24 97.7726 115.532 97.4581 115.762C97.1855 115.991 96.829 116.096 96.4306 116.096ZM104.503 95.5437L100.666 107.186C100.645 107.249 100.645 107.312 100.687 107.353C100.729 107.416 100.792 107.437 100.855 107.437H108.256C108.319 107.437 108.361 107.416 108.403 107.353C108.445 107.312 108.445 107.249 108.445 107.186L104.608 95.5437C104.608 95.5228 104.587 95.502 104.566 95.502C104.524 95.502 104.503 95.5228 104.503 95.5437Z" fill="#0DAF9A"/>
<path d="M122.221 116.409C120.271 116.409 118.677 115.658 117.461 114.134C116.224 112.632 115.616 110.567 115.616 107.958C115.616 105.267 116.203 103.18 117.398 101.72C118.573 100.259 120.187 99.5081 122.221 99.5081C124.339 99.5081 126.1 100.384 127.463 102.116L127.526 102.179C127.547 102.179 127.547 102.179 127.547 102.137L127.589 100.948C127.589 100.635 127.694 100.364 127.924 100.155C128.155 99.9462 128.427 99.821 128.742 99.821C129.056 99.821 129.329 99.9254 129.539 100.155C129.748 100.384 129.874 100.635 129.874 100.948V121.792C129.874 122.126 129.748 122.397 129.518 122.627C129.266 122.856 128.994 122.981 128.658 122.981C128.323 122.981 128.029 122.856 127.819 122.627C127.589 122.397 127.463 122.105 127.463 121.792V114.009C127.463 113.988 127.442 113.968 127.442 113.968C127.421 113.968 127.4 113.988 127.379 114.009C126.079 115.616 124.36 116.409 122.221 116.409ZM122.745 101.386C119.6 101.386 118.027 103.577 118.027 107.958C118.027 110.108 118.447 111.735 119.265 112.862C120.082 113.988 121.256 114.531 122.745 114.531C124.003 114.531 125.115 114.114 126.058 113.237C127.002 112.382 127.484 111.359 127.484 110.17V105.726C127.484 104.557 127.023 103.535 126.079 102.68C125.135 101.824 124.024 101.386 122.745 101.386Z" fill="#0DAF9A"/>
<path d="M139.729 116.409C137.905 116.409 136.563 115.908 135.724 114.907C134.885 113.905 134.445 112.236 134.445 109.941V101.01C134.445 100.677 134.55 100.405 134.781 100.176C134.99 99.9462 135.284 99.821 135.619 99.821C135.955 99.821 136.227 99.9462 136.479 100.176C136.71 100.405 136.815 100.697 136.815 101.01V109.628C136.815 111.506 137.108 112.799 137.653 113.488C138.219 114.197 139.121 114.531 140.358 114.531C141.49 114.531 142.56 114.051 143.566 113.07C144.573 112.09 145.076 111.046 145.076 109.899V101.01C145.076 100.677 145.202 100.405 145.432 100.176C145.663 99.9462 145.956 99.821 146.292 99.821C146.627 99.821 146.9 99.9462 147.152 100.176C147.382 100.405 147.487 100.697 147.487 101.01V114.969C147.487 115.282 147.382 115.553 147.152 115.762C146.942 115.971 146.669 116.096 146.355 116.096C146.04 116.096 145.768 115.991 145.537 115.762C145.306 115.553 145.181 115.282 145.181 114.969V113.696C145.181 113.675 145.16 113.655 145.16 113.655C145.139 113.655 145.118 113.675 145.097 113.696C143.671 115.512 141.868 116.409 139.729 116.409Z" fill="#0DAF9A"/>
<path d="M155.644 95.6271C155.392 95.8775 155.098 95.9818 154.742 95.9818C154.385 95.9818 154.092 95.8567 153.84 95.6271C153.589 95.3976 153.484 95.0846 153.484 94.7299V93.8953C153.484 93.5615 153.61 93.2694 153.84 93.019C154.071 92.7686 154.385 92.6434 154.742 92.6434C155.098 92.6434 155.392 92.7686 155.644 93.019C155.874 93.2694 156 93.5615 156 93.8953V94.7299C156 95.0846 155.874 95.3768 155.644 95.6271ZM155.644 115.72C155.392 115.971 155.098 116.096 154.742 116.096C154.385 116.096 154.092 115.971 153.84 115.72C153.589 115.47 153.484 115.178 153.484 114.844V101.073C153.484 100.739 153.61 100.447 153.84 100.197C154.071 99.9462 154.385 99.821 154.742 99.821C155.098 99.821 155.392 99.9462 155.644 100.197C155.874 100.447 156 100.739 156 101.073V114.844C156 115.178 155.874 115.47 155.644 115.72Z" fill="#0DAF9A"/>
<path d="M92.6565 54.1891C92.6565 54.6272 92.6565 55.0654 92.6565 55.5036C92.6565 57.9657 92.6565 60.4486 92.6565 62.9107C92.6355 66.1448 91.8387 69.1494 89.7629 71.7158C86.9323 75.2211 83.221 76.932 78.6919 76.8068C73.2613 76.6608 69.3194 74.1152 66.7823 69.3789C66.0065 67.9183 65.5242 66.3117 65.5032 64.6216C65.4613 57.2771 65.3984 49.9326 65.3565 42.6089C65.3565 42.3377 65.3565 42.0665 65.3565 41.7743C64.329 41.4822 63.2807 41.2527 62.3161 40.898C60.4081 40.1886 58.8145 39.0201 57.5774 37.3927C56.9065 36.4955 56.1516 35.6609 55.6065 34.7011C54.5581 32.8023 53.5516 30.8619 52.65 28.8797C51.2032 25.6665 49.7774 22.4533 48.4984 19.1774C47.7016 17.1744 47.4081 15.0253 47.471 12.8344C47.5758 9.74642 49.0855 7.51385 51.6855 6.01156C53.0694 5.21869 54.5581 4.6136 56.0048 3.94592C56.3823 3.779 56.6129 3.61208 56.6968 3.15304C56.9484 1.94287 58.0177 1.0874 59.2339 1.00394C60.4081 0.941343 61.5194 1.62989 61.9597 2.71488C62.421 3.84159 62.1274 5.13523 61.2258 5.90724C60.3032 6.70011 58.8984 6.80444 57.8919 6.13675C57.5355 5.88637 57.2419 5.82378 56.8436 6.01156C55.4597 6.67924 54.0339 7.22174 52.7129 7.99375C49.9871 9.57949 49.0016 12.0207 49.5887 15.1713C50.1758 18.4054 51.4548 21.3891 52.8387 24.352C53.9081 26.6263 54.8936 28.9632 56.1726 31.1123C57.6613 33.5952 59.15 36.1616 61.729 37.7891C63.2387 38.7489 64.8952 39.3749 66.6774 39.2705C69.2145 39.1245 71.4161 38.0604 73.0936 36.1408C74.0161 35.0766 74.8129 33.8665 75.6097 32.698C78.2307 28.8797 79.971 24.6232 81.7323 20.3876C82.6549 18.155 83.4097 15.839 83.3887 13.3561C83.3887 11.1026 82.3823 9.39171 80.5371 8.26499C79.0484 7.34693 77.4129 6.65838 75.8194 5.94897C75.5887 5.84464 75.1484 6.05329 74.8758 6.22021C73.6178 7.07568 71.8565 6.84617 70.9968 5.65686C70.0532 4.38408 70.3048 2.65228 71.5629 1.71335C73.0097 0.628367 75.1903 1.25432 75.7984 2.96526C75.9871 3.50775 76.2807 3.75813 76.7839 3.92505C78.8178 4.63447 80.7468 5.53166 82.4452 6.8879C84.4371 8.47364 85.3807 10.5393 85.4436 13.0848C85.5065 16.0268 84.7516 18.8019 83.5984 21.4309C81.921 25.27 79.992 29.0049 78.2726 32.8232C77.1823 35.2436 75.6936 37.3509 73.6807 39.0827C72.2129 40.3347 70.5355 41.1067 68.6274 41.4614C67.6 41.6492 67.6 41.6492 67.6 42.6924C67.6 49.1815 67.621 55.6705 67.579 62.1595C67.579 63.9122 67.7049 65.644 68.3968 67.2298C69.529 69.9005 71.4161 71.9453 74.0581 73.2389C80.4742 76.3895 87.8129 72.6756 89.7 66.3743C89.9726 65.4562 90.1823 64.4964 90.2033 63.5575C90.2662 60.5529 90.2242 57.5484 90.2242 54.5229C90.2242 54.4186 90.2033 54.3143 90.2033 54.1473L92.6565 54.1891Z" fill="#F3434D" stroke="#F3434D" stroke-width="2" stroke-miterlimit="10"/>
<path d="M101.002 45.1962C101.002 49.3901 94.879 55.3784 92.4468 57.5901C91.8806 58.0909 91.0419 58.0909 90.4758 57.5901C88.0435 55.3784 81.921 49.411 81.921 45.1962C81.921 39.9591 86.1984 35.7026 91.4613 35.7026C96.7242 35.7026 101.002 39.9591 101.002 45.1962Z" fill="#0DAF9A"/>
<path d="M95.1935 44.9041C95.2774 42.3168 93.6 41.0858 91.4613 40.9815C89.1339 40.8772 87.6661 42.442 87.6452 44.7998C87.6242 47.2201 89.0919 48.7433 91.4403 48.7433C93.7048 48.7433 95.1935 47.2201 95.1935 44.9041Z" fill="white"/>
</svg>
