<svg width="22" height="22" viewBox="0 0 22 22" fill="none" xmlns="http://www.w3.org/2000/svg">
<path fill-rule="evenodd" clip-rule="evenodd" d="M19.6275 21.4118C19.6275 21.4118 21.4118 21.4118 21.4118 19.6275C21.4118 17.8431 19.6275 12.4902 10.7059 12.4902C1.78431 12.4902 0 17.8431 0 19.6275C0 21.4118 1.78431 21.4118 1.78431 21.4118H19.6275ZM1.79324 19.7274V19.7238V19.7274ZM1.82357 19.6275H19.5882C19.5966 19.6265 19.6049 19.6253 19.6132 19.6239L19.6275 19.6203C19.6257 19.1814 19.3527 17.861 18.1429 16.6512C16.9795 15.4878 14.7902 14.2745 10.7059 14.2745C6.61981 14.2745 4.43224 15.4878 3.26886 16.6512C2.0591 17.861 1.78788 19.1814 1.78431 19.6203C1.79737 19.6228 1.81046 19.6252 1.82357 19.6275ZM19.6203 19.7274V19.7238V19.7274ZM10.7059 8.92157C11.6523 8.92157 12.56 8.54559 13.2293 7.87634C13.8985 7.2071 14.2745 6.2994 14.2745 5.35294C14.2745 4.40648 13.8985 3.49879 13.2293 2.82954C12.56 2.16029 11.6523 1.78431 10.7059 1.78431C9.75943 1.78431 8.85173 2.16029 8.18248 2.82954C7.51324 3.49879 7.13726 4.40648 7.13726 5.35294C7.13726 6.2994 7.51324 7.2071 8.18248 7.87634C8.85173 8.54559 9.75943 8.92157 10.7059 8.92157ZM16.0588 5.35294C16.0588 6.77263 15.4949 8.13417 14.491 9.13804C13.4871 10.1419 12.1256 10.7059 10.7059 10.7059C9.2862 10.7059 7.92465 10.1419 6.92078 9.13804C5.91691 8.13417 5.35294 6.77263 5.35294 5.35294C5.35294 3.93325 5.91691 2.57171 6.92078 1.56784C7.92465 0.563969 9.2862 0 10.7059 0C12.1256 0 13.4871 0.563969 14.491 1.56784C15.4949 2.57171 16.0588 3.93325 16.0588 5.35294Z" fill="white"/>
</svg>
