<svg width="22" height="22" viewBox="0 0 22 22" fill="none" xmlns="http://www.w3.org/2000/svg">
<path d="M12.9273 12.9273C12.6776 13.1953 12.3765 13.4102 12.042 13.5592C11.7074 13.7083 11.3463 13.7885 10.9801 13.7949C10.6139 13.8014 10.2501 13.734 9.91055 13.5969C9.57096 13.4597 9.26247 13.2555 9.0035 12.9965C8.74452 12.7376 8.54036 12.4291 8.40319 12.0895C8.26602 11.7499 8.19866 11.3862 8.20512 11.02C8.21158 10.6538 8.29174 10.2926 8.4408 9.95809C8.58986 9.62355 8.80478 9.32245 9.07273 9.07277M16.4 16.4C14.846 17.5846 12.9537 18.2408 11 18.2728C4.63636 18.2728 1 11 1 11C2.13081 8.89268 3.69921 7.05151 5.6 5.60005L16.4 16.4ZM9.09091 3.9455C9.71667 3.79903 10.3573 3.72581 11 3.72732C17.3636 3.72732 21 11 21 11C20.4482 12.0324 19.7901 13.0044 19.0364 13.9L9.09091 3.9455Z" stroke="#BADAD6" stroke-width="2" stroke-linecap="round" stroke-linejoin="round"/>
<path d="M1 1L21 21" stroke="#BADAD6" stroke-width="2" stroke-linecap="round" stroke-linejoin="round"/>
</svg>
